<svg xmlns="http://www.w3.org/2000/svg" xmlns:xlink="http://www.w3.org/1999/xlink" width="487" zoomAndPan="magnify" viewBox="0 0 365.25 126.750001" height="169" preserveAspectRatio="xMidYMid meet" version="1.0"><defs><g/><clipPath id="23ef79c7e6"><path d="M 2 17.695312 L 99 17.695312 L 99 117.988281 L 2 117.988281 Z M 2 17.695312 " clip-rule="nonzero"/></clipPath><clipPath id="e0650b379b"><path d="M 57.609375 85.367188 C 63.855469 85.367188 66.632812 90.574219 70.796875 94.738281 C 72.878906 96.820312 76.695312 96.820312 78.777344 94.738281 L 88.839844 84.675781 C 90.925781 82.59375 90.925781 78.773438 88.839844 76.691406 L 78.777344 66.628906 C 74.960938 62.8125 70.449219 60.382812 73.570312 57.953125 C 74.960938 56.910156 76 56.21875 78.429688 56.21875 C 82.25 56.21875 83.636719 59.339844 86.414062 61.769531 C 87.800781 63.15625 89.882812 63.15625 91.269531 61.769531 L 97.519531 55.523438 C 98.90625 54.136719 98.90625 52.054688 97.519531 50.664062 L 91.269531 44.417969 C 89.882812 43.03125 87.800781 43.03125 86.414062 44.417969 C 83.984375 46.847656 81.902344 50.316406 78.429688 50.316406 C 74.960938 50.316406 72.878906 46.847656 70.449219 44.417969 C 69.0625 43.03125 66.976562 43.03125 65.589844 44.417969 L 59.34375 50.664062 C 57.957031 52.054688 57.957031 54.136719 59.34375 55.523438 C 64.550781 60.730469 73.226562 63.851562 69.0625 68.710938 C 65.9375 72.527344 62.46875 76.691406 57.609375 76.691406 C 51.707031 76.691406 48.238281 70.792969 44.074219 66.628906 C 41.992188 64.546875 38.175781 64.546875 36.09375 66.628906 L 33.664062 69.058594 L 26.027344 76.691406 C 23.945312 78.773438 23.945312 82.59375 26.027344 84.675781 L 34.355469 93.003906 L 36.09375 94.738281 C 38.175781 96.820312 41.992188 96.820312 44.074219 94.738281 C 48.585938 90.226562 51.015625 85.367188 57.609375 85.367188 Z M 47.195312 46.152344 L 66.632812 65.585938 C 64.203125 68.710938 60.730469 72.527344 57.609375 72.527344 C 53.445312 72.527344 49.28125 66.28125 46.503906 63.503906 C 43.03125 60.035156 37.132812 60.035156 33.316406 63.503906 L 23.25 73.570312 C 19.78125 77.039062 19.78125 82.9375 23.25 86.757812 L 33.316406 96.820312 C 36.785156 100.292969 42.6875 100.292969 46.503906 96.820312 C 49.625 93.699219 52.75 88.492188 57.609375 88.492188 C 61.425781 88.492188 64.203125 91.960938 66.632812 95.085938 L 47.195312 114.519531 C 43.03125 118.683594 36.4375 118.683594 32.273438 114.519531 L 5.550781 87.796875 C 1.386719 83.632812 1.386719 77.039062 5.550781 72.875 L 32.273438 46.152344 C 36.4375 41.988281 43.03125 41.988281 47.195312 46.152344 Z M 82.59375 25.679688 L 86.414062 29.496094 C 87.453125 30.535156 89.1875 30.535156 90.230469 29.496094 L 94.046875 25.679688 C 95.089844 24.636719 95.089844 22.902344 94.046875 21.859375 L 90.230469 18.042969 C 89.1875 17.003906 87.453125 17.003906 86.414062 18.042969 L 82.59375 21.859375 C 81.554688 22.902344 81.554688 24.636719 82.59375 25.679688 Z M 82.59375 25.679688 " clip-rule="evenodd"/></clipPath><linearGradient x1="0.115" gradientTransform="matrix(34.703825, 0, 0, 34.703825, 2.082228, 17.696066)" y1="3.025" x2="2.965" gradientUnits="userSpaceOnUse" y2="0.175" id="52c42ba9ba"><stop stop-opacity="1" stop-color="rgb(0%, 39.199829%, 60.398865%)" offset="0"/><stop stop-opacity="1" stop-color="rgb(0%, 39.199829%, 60.398865%)" offset="0.125"/><stop stop-opacity="1" stop-color="rgb(0%, 39.199829%, 60.398865%)" offset="0.15625"/><stop stop-opacity="1" stop-color="rgb(0%, 39.280701%, 60.450745%)" offset="0.171875"/><stop stop-opacity="1" stop-color="rgb(0%, 39.732361%, 60.746765%)" offset="0.175781"/><stop stop-opacity="1" stop-color="rgb(0%, 40.104675%, 60.98938%)" offset="0.179688"/><stop stop-opacity="1" stop-color="rgb(0%, 40.47699%, 61.230469%)" offset="0.183594"/><stop stop-opacity="1" stop-color="rgb(0%, 40.849304%, 61.473083%)" offset="0.1875"/><stop stop-opacity="1" stop-color="rgb(0%, 41.220093%, 61.715698%)" offset="0.191406"/><stop stop-opacity="1" stop-color="rgb(0%, 41.592407%, 61.958313%)" offset="0.195313"/><stop stop-opacity="1" stop-color="rgb(0%, 41.964722%, 62.199402%)" offset="0.199219"/><stop stop-opacity="1" stop-color="rgb(0%, 42.337036%, 62.442017%)" offset="0.203125"/><stop stop-opacity="1" stop-color="rgb(0%, 42.707825%, 62.684631%)" offset="0.207031"/><stop stop-opacity="1" stop-color="rgb(0%, 43.080139%, 62.927246%)" offset="0.210938"/><stop stop-opacity="1" stop-color="rgb(0%, 43.450928%, 63.168335%)" offset="0.214844"/><stop stop-opacity="1" stop-color="rgb(0%, 43.823242%, 63.41095%)" offset="0.21875"/><stop stop-opacity="1" stop-color="rgb(0%, 44.195557%, 63.653564%)" offset="0.222656"/><stop stop-opacity="1" stop-color="rgb(0%, 44.567871%, 63.896179%)" offset="0.226563"/><stop stop-opacity="1" stop-color="rgb(0%, 44.93866%, 64.137268%)" offset="0.230469"/><stop stop-opacity="1" stop-color="rgb(0%, 45.310974%, 64.379883%)" offset="0.234375"/><stop stop-opacity="1" stop-color="rgb(0%, 45.683289%, 64.622498%)" offset="0.238281"/><stop stop-opacity="1" stop-color="rgb(0%, 46.055603%, 64.865112%)" offset="0.242188"/><stop stop-opacity="1" stop-color="rgb(0%, 46.426392%, 65.106201%)" offset="0.246094"/><stop stop-opacity="1" stop-color="rgb(0%, 46.798706%, 65.348816%)" offset="0.25"/><stop stop-opacity="1" stop-color="rgb(0%, 47.171021%, 65.591431%)" offset="0.253906"/><stop stop-opacity="1" stop-color="rgb(0%, 47.543335%, 65.834045%)" offset="0.257813"/><stop stop-opacity="1" stop-color="rgb(0%, 47.914124%, 66.075134%)" offset="0.261719"/><stop stop-opacity="1" stop-color="rgb(0%, 48.286438%, 66.317749%)" offset="0.265625"/><stop stop-opacity="1" stop-color="rgb(0%, 48.658752%, 66.560364%)" offset="0.269531"/><stop stop-opacity="1" stop-color="rgb(0%, 49.031067%, 66.802979%)" offset="0.273438"/><stop stop-opacity="1" stop-color="rgb(0%, 49.401855%, 67.044067%)" offset="0.277344"/><stop stop-opacity="1" stop-color="rgb(0%, 49.77417%, 67.286682%)" offset="0.28125"/><stop stop-opacity="1" stop-color="rgb(0%, 50.146484%, 67.529297%)" offset="0.285156"/><stop stop-opacity="1" stop-color="rgb(0%, 50.518799%, 67.771912%)" offset="0.289063"/><stop stop-opacity="1" stop-color="rgb(0%, 50.889587%, 68.013%)" offset="0.292969"/><stop stop-opacity="1" stop-color="rgb(0%, 51.261902%, 68.255615%)" offset="0.296875"/><stop stop-opacity="1" stop-color="rgb(0%, 51.634216%, 68.49823%)" offset="0.300781"/><stop stop-opacity="1" stop-color="rgb(0%, 52.006531%, 68.740845%)" offset="0.304688"/><stop stop-opacity="1" stop-color="rgb(0%, 52.377319%, 68.981934%)" offset="0.308594"/><stop stop-opacity="1" stop-color="rgb(0%, 52.749634%, 69.224548%)" offset="0.3125"/><stop stop-opacity="1" stop-color="rgb(0%, 53.121948%, 69.467163%)" offset="0.316406"/><stop stop-opacity="1" stop-color="rgb(0%, 53.494263%, 69.709778%)" offset="0.320313"/><stop stop-opacity="1" stop-color="rgb(0%, 53.865051%, 69.950867%)" offset="0.324219"/><stop stop-opacity="1" stop-color="rgb(0%, 54.237366%, 70.193481%)" offset="0.328125"/><stop stop-opacity="1" stop-color="rgb(0%, 54.60968%, 70.436096%)" offset="0.332031"/><stop stop-opacity="1" stop-color="rgb(0%, 54.981995%, 70.678711%)" offset="0.335938"/><stop stop-opacity="1" stop-color="rgb(0%, 55.352783%, 70.9198%)" offset="0.339844"/><stop stop-opacity="1" stop-color="rgb(0%, 55.725098%, 71.162415%)" offset="0.34375"/><stop stop-opacity="1" stop-color="rgb(0%, 56.095886%, 71.405029%)" offset="0.347656"/><stop stop-opacity="1" stop-color="rgb(0%, 56.468201%, 71.647644%)" offset="0.351563"/><stop stop-opacity="1" stop-color="rgb(0%, 56.840515%, 71.888733%)" offset="0.355469"/><stop stop-opacity="1" stop-color="rgb(0%, 57.21283%, 72.131348%)" offset="0.359375"/><stop stop-opacity="1" stop-color="rgb(0%, 57.583618%, 72.373962%)" offset="0.363281"/><stop stop-opacity="1" stop-color="rgb(0%, 57.955933%, 72.616577%)" offset="0.367188"/><stop stop-opacity="1" stop-color="rgb(0%, 58.328247%, 72.857666%)" offset="0.371094"/><stop stop-opacity="1" stop-color="rgb(0%, 58.700562%, 73.100281%)" offset="0.375"/><stop stop-opacity="1" stop-color="rgb(0%, 59.07135%, 73.342896%)" offset="0.378906"/><stop stop-opacity="1" stop-color="rgb(0%, 59.443665%, 73.58551%)" offset="0.382813"/><stop stop-opacity="1" stop-color="rgb(0%, 59.815979%, 73.826599%)" offset="0.386719"/><stop stop-opacity="1" stop-color="rgb(0%, 60.188293%, 74.069214%)" offset="0.390625"/><stop stop-opacity="1" stop-color="rgb(0%, 60.559082%, 74.311829%)" offset="0.394531"/><stop stop-opacity="1" stop-color="rgb(0%, 60.931396%, 74.554443%)" offset="0.398438"/><stop stop-opacity="1" stop-color="rgb(0%, 61.303711%, 74.795532%)" offset="0.402344"/><stop stop-opacity="1" stop-color="rgb(0%, 61.676025%, 75.038147%)" offset="0.40625"/><stop stop-opacity="1" stop-color="rgb(0%, 62.046814%, 75.280762%)" offset="0.410156"/><stop stop-opacity="1" stop-color="rgb(0%, 62.419128%, 75.523376%)" offset="0.414063"/><stop stop-opacity="1" stop-color="rgb(0%, 62.791443%, 75.764465%)" offset="0.417969"/><stop stop-opacity="1" stop-color="rgb(0%, 63.163757%, 76.00708%)" offset="0.421875"/><stop stop-opacity="1" stop-color="rgb(0%, 63.534546%, 76.249695%)" offset="0.425781"/><stop stop-opacity="1" stop-color="rgb(0%, 63.90686%, 76.49231%)" offset="0.429688"/><stop stop-opacity="1" stop-color="rgb(0%, 64.279175%, 76.733398%)" offset="0.433594"/><stop stop-opacity="1" stop-color="rgb(0%, 64.651489%, 76.976013%)" offset="0.4375"/><stop stop-opacity="1" stop-color="rgb(0%, 65.022278%, 77.218628%)" offset="0.441406"/><stop stop-opacity="1" stop-color="rgb(0%, 65.394592%, 77.461243%)" offset="0.445313"/><stop stop-opacity="1" stop-color="rgb(0%, 65.766907%, 77.702332%)" offset="0.449219"/><stop stop-opacity="1" stop-color="rgb(0%, 66.139221%, 77.944946%)" offset="0.453125"/><stop stop-opacity="1" stop-color="rgb(0%, 66.51001%, 78.187561%)" offset="0.457031"/><stop stop-opacity="1" stop-color="rgb(0%, 66.882324%, 78.430176%)" offset="0.460938"/><stop stop-opacity="1" stop-color="rgb(0%, 67.253113%, 78.671265%)" offset="0.464844"/><stop stop-opacity="1" stop-color="rgb(0%, 67.625427%, 78.913879%)" offset="0.46875"/><stop stop-opacity="1" stop-color="rgb(0%, 67.997742%, 79.156494%)" offset="0.472656"/><stop stop-opacity="1" stop-color="rgb(0%, 68.370056%, 79.399109%)" offset="0.476563"/><stop stop-opacity="1" stop-color="rgb(0%, 68.740845%, 79.640198%)" offset="0.480469"/><stop stop-opacity="1" stop-color="rgb(0%, 69.113159%, 79.882812%)" offset="0.484375"/><stop stop-opacity="1" stop-color="rgb(0%, 69.485474%, 80.125427%)" offset="0.488281"/><stop stop-opacity="1" stop-color="rgb(0%, 69.857788%, 80.368042%)" offset="0.492188"/><stop stop-opacity="1" stop-color="rgb(0%, 70.228577%, 80.609131%)" offset="0.496094"/><stop stop-opacity="1" stop-color="rgb(0%, 70.600891%, 80.851746%)" offset="0.5"/><stop stop-opacity="1" stop-color="rgb(0%, 70.973206%, 81.09436%)" offset="0.503906"/><stop stop-opacity="1" stop-color="rgb(0%, 71.34552%, 81.336975%)" offset="0.507813"/><stop stop-opacity="1" stop-color="rgb(0%, 71.716309%, 81.578064%)" offset="0.511719"/><stop stop-opacity="1" stop-color="rgb(0%, 72.088623%, 81.820679%)" offset="0.515625"/><stop stop-opacity="1" stop-color="rgb(0%, 72.460938%, 82.063293%)" offset="0.519531"/><stop stop-opacity="1" stop-color="rgb(0%, 72.833252%, 82.305908%)" offset="0.523438"/><stop stop-opacity="1" stop-color="rgb(0%, 73.204041%, 82.546997%)" offset="0.527344"/><stop stop-opacity="1" stop-color="rgb(0%, 73.576355%, 82.789612%)" offset="0.53125"/><stop stop-opacity="1" stop-color="rgb(0%, 73.948669%, 83.032227%)" offset="0.535156"/><stop stop-opacity="1" stop-color="rgb(0%, 74.320984%, 83.274841%)" offset="0.539063"/><stop stop-opacity="1" stop-color="rgb(0%, 74.691772%, 83.51593%)" offset="0.542969"/><stop stop-opacity="1" stop-color="rgb(0%, 75.064087%, 83.758545%)" offset="0.546875"/><stop stop-opacity="1" stop-color="rgb(0%, 75.436401%, 84.00116%)" offset="0.550781"/><stop stop-opacity="1" stop-color="rgb(0%, 75.808716%, 84.243774%)" offset="0.554688"/><stop stop-opacity="1" stop-color="rgb(0%, 76.179504%, 84.484863%)" offset="0.558594"/><stop stop-opacity="1" stop-color="rgb(0%, 76.551819%, 84.727478%)" offset="0.5625"/><stop stop-opacity="1" stop-color="rgb(0%, 76.924133%, 84.970093%)" offset="0.566406"/><stop stop-opacity="1" stop-color="rgb(0%, 77.296448%, 85.212708%)" offset="0.570312"/><stop stop-opacity="1" stop-color="rgb(0%, 77.667236%, 85.453796%)" offset="0.574219"/><stop stop-opacity="1" stop-color="rgb(0%, 78.039551%, 85.696411%)" offset="0.578125"/><stop stop-opacity="1" stop-color="rgb(0%, 78.411865%, 85.939026%)" offset="0.582031"/><stop stop-opacity="1" stop-color="rgb(0%, 78.78418%, 86.181641%)" offset="0.585938"/><stop stop-opacity="1" stop-color="rgb(0%, 79.154968%, 86.422729%)" offset="0.589844"/><stop stop-opacity="1" stop-color="rgb(0%, 79.527283%, 86.665344%)" offset="0.59375"/><stop stop-opacity="1" stop-color="rgb(0%, 79.898071%, 86.907959%)" offset="0.597656"/><stop stop-opacity="1" stop-color="rgb(0%, 80.270386%, 87.150574%)" offset="0.601563"/><stop stop-opacity="1" stop-color="rgb(0%, 80.6427%, 87.391663%)" offset="0.605469"/><stop stop-opacity="1" stop-color="rgb(0%, 81.015015%, 87.634277%)" offset="0.609375"/><stop stop-opacity="1" stop-color="rgb(0%, 81.385803%, 87.876892%)" offset="0.613281"/><stop stop-opacity="1" stop-color="rgb(0%, 81.758118%, 88.119507%)" offset="0.617188"/><stop stop-opacity="1" stop-color="rgb(0%, 82.130432%, 88.360596%)" offset="0.621094"/><stop stop-opacity="1" stop-color="rgb(0%, 82.502747%, 88.60321%)" offset="0.625"/><stop stop-opacity="1" stop-color="rgb(0%, 82.873535%, 88.845825%)" offset="0.628906"/><stop stop-opacity="1" stop-color="rgb(0%, 83.24585%, 89.08844%)" offset="0.632813"/><stop stop-opacity="1" stop-color="rgb(0%, 83.618164%, 89.329529%)" offset="0.636719"/><stop stop-opacity="1" stop-color="rgb(0%, 83.990479%, 89.572144%)" offset="0.640625"/><stop stop-opacity="1" stop-color="rgb(0%, 84.361267%, 89.814758%)" offset="0.644531"/><stop stop-opacity="1" stop-color="rgb(0%, 84.733582%, 90.057373%)" offset="0.648438"/><stop stop-opacity="1" stop-color="rgb(0%, 85.105896%, 90.298462%)" offset="0.652344"/><stop stop-opacity="1" stop-color="rgb(0%, 85.47821%, 90.541077%)" offset="0.65625"/><stop stop-opacity="1" stop-color="rgb(0%, 85.848999%, 90.783691%)" offset="0.660156"/><stop stop-opacity="1" stop-color="rgb(0%, 86.221313%, 91.026306%)" offset="0.664063"/><stop stop-opacity="1" stop-color="rgb(0%, 86.593628%, 91.267395%)" offset="0.667969"/><stop stop-opacity="1" stop-color="rgb(0%, 86.965942%, 91.51001%)" offset="0.671875"/><stop stop-opacity="1" stop-color="rgb(0%, 87.336731%, 91.752625%)" offset="0.675781"/><stop stop-opacity="1" stop-color="rgb(0%, 87.709045%, 91.995239%)" offset="0.679688"/><stop stop-opacity="1" stop-color="rgb(0%, 88.08136%, 92.236328%)" offset="0.683594"/><stop stop-opacity="1" stop-color="rgb(0%, 88.453674%, 92.478943%)" offset="0.6875"/><stop stop-opacity="1" stop-color="rgb(0%, 88.824463%, 92.721558%)" offset="0.691406"/><stop stop-opacity="1" stop-color="rgb(0%, 89.196777%, 92.964172%)" offset="0.695313"/><stop stop-opacity="1" stop-color="rgb(0%, 89.569092%, 93.205261%)" offset="0.699219"/><stop stop-opacity="1" stop-color="rgb(0%, 89.941406%, 93.447876%)" offset="0.703125"/><stop stop-opacity="1" stop-color="rgb(0%, 90.312195%, 93.690491%)" offset="0.707031"/><stop stop-opacity="1" stop-color="rgb(0%, 90.684509%, 93.933105%)" offset="0.710938"/><stop stop-opacity="1" stop-color="rgb(0%, 91.055298%, 94.174194%)" offset="0.714844"/><stop stop-opacity="1" stop-color="rgb(0%, 91.427612%, 94.416809%)" offset="0.71875"/><stop stop-opacity="1" stop-color="rgb(0%, 91.799927%, 94.659424%)" offset="0.722656"/><stop stop-opacity="1" stop-color="rgb(0%, 92.172241%, 94.902039%)" offset="0.726563"/><stop stop-opacity="1" stop-color="rgb(0%, 92.54303%, 95.143127%)" offset="0.730469"/><stop stop-opacity="1" stop-color="rgb(0%, 92.915344%, 95.385742%)" offset="0.734375"/><stop stop-opacity="1" stop-color="rgb(0%, 93.287659%, 95.628357%)" offset="0.738281"/><stop stop-opacity="1" stop-color="rgb(0%, 93.659973%, 95.870972%)" offset="0.742188"/><stop stop-opacity="1" stop-color="rgb(0%, 94.030762%, 96.112061%)" offset="0.746094"/><stop stop-opacity="1" stop-color="rgb(0%, 94.403076%, 96.354675%)" offset="0.75"/><stop stop-opacity="1" stop-color="rgb(0%, 94.775391%, 96.59729%)" offset="0.753906"/><stop stop-opacity="1" stop-color="rgb(0%, 95.147705%, 96.839905%)" offset="0.757813"/><stop stop-opacity="1" stop-color="rgb(0%, 95.518494%, 97.080994%)" offset="0.761719"/><stop stop-opacity="1" stop-color="rgb(0%, 95.890808%, 97.323608%)" offset="0.765625"/><stop stop-opacity="1" stop-color="rgb(0%, 96.263123%, 97.566223%)" offset="0.769531"/><stop stop-opacity="1" stop-color="rgb(0%, 96.635437%, 97.808838%)" offset="0.773438"/><stop stop-opacity="1" stop-color="rgb(0%, 97.006226%, 98.049927%)" offset="0.777344"/><stop stop-opacity="1" stop-color="rgb(0%, 97.37854%, 98.292542%)" offset="0.78125"/><stop stop-opacity="1" stop-color="rgb(0%, 97.750854%, 98.535156%)" offset="0.785156"/><stop stop-opacity="1" stop-color="rgb(0%, 98.123169%, 98.777771%)" offset="0.789062"/><stop stop-opacity="1" stop-color="rgb(0%, 98.493958%, 99.01886%)" offset="0.792969"/><stop stop-opacity="1" stop-color="rgb(0%, 98.866272%, 99.261475%)" offset="0.796875"/><stop stop-opacity="1" stop-color="rgb(0%, 99.238586%, 99.504089%)" offset="0.800781"/><stop stop-opacity="1" stop-color="rgb(0%, 99.610901%, 99.746704%)" offset="0.804688"/><stop stop-opacity="1" stop-color="rgb(0%, 99.804688%, 99.873352%)" offset="0.8125"/><stop stop-opacity="1" stop-color="rgb(0%, 100%, 100%)" offset="0.875"/><stop stop-opacity="1" stop-color="rgb(0%, 100%, 100%)" offset="1"/></linearGradient></defs><g clip-path="url(#23ef79c7e6)"><g clip-path="url(#e0650b379b)"><path fill="url(#52c42ba9ba)" d="M 1.386719 17.695312 L 1.386719 117.988281 L 98.90625 117.988281 L 98.90625 17.695312 Z M 1.386719 17.695312 " fill-rule="nonzero"/></g></g><g fill="#ffffff" fill-opacity="1"><g transform="translate(103.979709, 84.855888)"><g><path d="M 20.609375 0.703125 C 18.097656 0.703125 15.734375 0.238281 13.515625 -0.6875 C 11.304688 -1.625 9.375 -2.90625 7.71875 -4.53125 C 6.0625 -6.164062 4.765625 -8.050781 3.828125 -10.1875 C 2.898438 -12.332031 2.4375 -14.640625 2.4375 -17.109375 C 2.4375 -19.535156 2.898438 -21.832031 3.828125 -24 C 4.765625 -26.164062 6.0625 -28.0625 7.71875 -29.6875 C 9.375 -31.320312 11.304688 -32.601562 13.515625 -33.53125 C 15.734375 -34.457031 18.097656 -34.921875 20.609375 -34.921875 C 23.078125 -34.921875 25.195312 -34.5625 26.96875 -33.84375 C 28.738281 -33.125 30.226562 -32.320312 31.4375 -31.4375 C 32.832031 -30.414062 33.992188 -29.25 34.921875 -27.9375 L 28.984375 -22 C 28.335938 -22.789062 27.59375 -23.488281 26.75 -24.09375 C 26.007812 -24.613281 25.125 -25.09375 24.09375 -25.53125 C 23.070312 -25.976562 21.910156 -26.203125 20.609375 -26.203125 C 19.398438 -26.203125 18.257812 -25.96875 17.1875 -25.5 C 16.113281 -25.03125 15.179688 -24.398438 14.390625 -23.609375 C 13.597656 -22.816406 12.976562 -21.863281 12.53125 -20.75 C 12.09375 -19.632812 11.875 -18.421875 11.875 -17.109375 C 11.875 -15.804688 12.09375 -14.597656 12.53125 -13.484375 C 12.976562 -12.367188 13.597656 -11.414062 14.390625 -10.625 C 15.179688 -9.832031 16.113281 -9.203125 17.1875 -8.734375 C 18.257812 -8.265625 19.398438 -8.03125 20.609375 -8.03125 C 21.910156 -8.03125 23.070312 -8.25 24.09375 -8.6875 C 25.125 -9.132812 26.007812 -9.613281 26.75 -10.125 C 27.59375 -10.726562 28.335938 -11.425781 28.984375 -12.21875 L 34.921875 -6.28125 C 33.992188 -4.976562 32.832031 -3.816406 31.4375 -2.796875 C 30.226562 -1.910156 28.738281 -1.101562 26.96875 -0.375 C 25.195312 0.34375 23.078125 0.703125 20.609375 0.703125 Z M 20.609375 0.703125 "/></g></g></g><g fill="#ffffff" fill-opacity="1"><g transform="translate(135.063896, 84.855888)"><g><path d="M 4.890625 -48.90625 L 14.328125 -48.90625 L 14.328125 -29.34375 L 14.671875 -29.34375 C 15.410156 -30.363281 16.269531 -31.296875 17.25 -32.140625 C 18.09375 -32.835938 19.140625 -33.472656 20.390625 -34.046875 C 21.648438 -34.628906 23.117188 -34.921875 24.796875 -34.921875 C 26.523438 -34.921875 28.15625 -34.582031 29.6875 -33.90625 C 31.226562 -33.238281 32.566406 -32.285156 33.703125 -31.046875 C 34.847656 -29.816406 35.742188 -28.316406 36.390625 -26.546875 C 37.046875 -24.773438 37.375 -22.796875 37.375 -20.609375 L 37.375 0 L 27.9375 0 L 27.9375 -19.21875 C 27.9375 -21.3125 27.378906 -22.9375 26.265625 -24.09375 C 25.148438 -25.257812 23.613281 -25.84375 21.65625 -25.84375 C 19.5625 -25.84375 17.816406 -25.132812 16.421875 -23.71875 C 15.023438 -22.300781 14.328125 -20.445312 14.328125 -18.15625 L 14.328125 0 L 4.890625 0 Z M 4.890625 -48.90625 "/></g></g></g><g fill="#ffffff" fill-opacity="1"><g transform="translate(171.736306, 84.855888)"><g><path d="M 13.265625 0.703125 C 11.679688 0.703125 10.25 0.457031 8.96875 -0.03125 C 7.695312 -0.519531 6.601562 -1.207031 5.6875 -2.09375 C 4.78125 -2.976562 4.070312 -4.015625 3.5625 -5.203125 C 3.050781 -6.390625 2.796875 -7.679688 2.796875 -9.078125 C 2.796875 -11.867188 3.691406 -14.253906 5.484375 -16.234375 C 7.273438 -18.222656 9.753906 -19.492188 12.921875 -20.046875 L 23.75 -22 C 23.5625 -23.21875 22.96875 -24.28125 21.96875 -25.1875 C 20.96875 -26.09375 19.582031 -26.546875 17.8125 -26.546875 C 16.601562 -26.546875 15.519531 -26.347656 14.5625 -25.953125 C 13.613281 -25.554688 12.8125 -25.101562 12.15625 -24.59375 C 11.363281 -24.03125 10.6875 -23.398438 10.125 -22.703125 L 4.546875 -28.296875 C 5.523438 -29.503906 6.710938 -30.597656 8.109375 -31.578125 C 9.316406 -32.410156 10.78125 -33.175781 12.5 -33.875 C 14.226562 -34.570312 16.234375 -34.921875 18.515625 -34.921875 C 20.703125 -34.921875 22.691406 -34.570312 24.484375 -33.875 C 26.273438 -33.175781 27.820312 -32.207031 29.125 -30.96875 C 30.4375 -29.738281 31.441406 -28.296875 32.140625 -26.640625 C 32.835938 -24.992188 33.1875 -23.21875 33.1875 -21.3125 L 33.1875 0 L 23.75 0 L 23.75 -4.1875 L 23.40625 -4.1875 C 22.65625 -3.257812 21.789062 -2.445312 20.8125 -1.75 C 19.976562 -1.09375 18.921875 -0.519531 17.640625 -0.03125 C 16.359375 0.457031 14.898438 0.703125 13.265625 0.703125 Z M 16.421875 -6.984375 C 18.515625 -6.984375 20.257812 -7.691406 21.65625 -9.109375 C 23.050781 -10.535156 23.75 -12.390625 23.75 -14.671875 L 23.75 -15.375 L 16.0625 -13.96875 C 14.851562 -13.738281 13.910156 -13.320312 13.234375 -12.71875 C 12.554688 -12.113281 12.21875 -11.367188 12.21875 -10.484375 C 12.21875 -9.410156 12.566406 -8.554688 13.265625 -7.921875 C 13.972656 -7.296875 15.023438 -6.984375 16.421875 -6.984375 Z M 16.421875 -6.984375 "/></g></g></g><g fill="#ffffff" fill-opacity="1"><g transform="translate(204.217549, 84.855888)"><g><path d="M 4.546875 -34.234375 L 13.96875 -34.234375 L 13.96875 0 L 4.546875 0 Z M 9.21875 -38.765625 C 7.726562 -38.765625 6.457031 -39.289062 5.40625 -40.34375 C 4.363281 -41.394531 3.84375 -42.617188 3.84375 -44.015625 C 3.84375 -45.410156 4.378906 -46.628906 5.453125 -47.671875 C 6.523438 -48.722656 7.804688 -49.25 9.296875 -49.25 C 10.785156 -49.25 12.050781 -48.722656 13.09375 -47.671875 C 14.144531 -46.628906 14.671875 -45.410156 14.671875 -44.015625 C 14.671875 -42.617188 14.132812 -41.394531 13.0625 -40.34375 C 11.988281 -39.289062 10.707031 -38.765625 9.21875 -38.765625 Z M 9.21875 -38.765625 "/></g></g></g><g fill="#ffffff" fill-opacity="1"><g transform="translate(217.489281, 84.855888)"><g><path d="M 4.546875 -34.234375 L 13.96875 -34.234375 L 13.96875 -29.34375 L 14.328125 -29.34375 C 15.066406 -30.363281 15.925781 -31.296875 16.90625 -32.140625 C 17.738281 -32.835938 18.785156 -33.472656 20.046875 -34.046875 C 21.304688 -34.628906 22.773438 -34.921875 24.453125 -34.921875 C 26.171875 -34.921875 27.796875 -34.582031 29.328125 -33.90625 C 30.867188 -33.238281 32.207031 -32.285156 33.34375 -31.046875 C 34.488281 -29.816406 35.390625 -28.316406 36.046875 -26.546875 C 36.703125 -24.773438 37.03125 -22.796875 37.03125 -20.609375 L 37.03125 0 L 27.59375 0 L 27.59375 -19.21875 C 27.59375 -21.3125 27.03125 -22.9375 25.90625 -24.09375 C 24.789062 -25.257812 23.257812 -25.84375 21.3125 -25.84375 C 19.207031 -25.84375 17.457031 -25.132812 16.0625 -23.71875 C 14.664062 -22.300781 13.96875 -20.445312 13.96875 -18.15625 L 13.96875 0 L 4.546875 0 Z M 4.546875 -34.234375 "/></g></g></g><g fill="#ffffff" fill-opacity="1"><g transform="translate(253.812422, 84.855888)"><g><path d="M 4.890625 -48.90625 L 14.328125 -48.90625 L 14.328125 0 L 4.890625 0 Z M 4.890625 -48.90625 "/></g></g></g><g fill="#ffffff" fill-opacity="1"><g transform="translate(267.782686, 84.855888)"><g><path d="M 13.265625 0.703125 C 11.679688 0.703125 10.25 0.457031 8.96875 -0.03125 C 7.695312 -0.519531 6.601562 -1.207031 5.6875 -2.09375 C 4.78125 -2.976562 4.070312 -4.015625 3.5625 -5.203125 C 3.050781 -6.390625 2.796875 -7.679688 2.796875 -9.078125 C 2.796875 -11.867188 3.691406 -14.253906 5.484375 -16.234375 C 7.273438 -18.222656 9.753906 -19.492188 12.921875 -20.046875 L 23.75 -22 C 23.5625 -23.21875 22.96875 -24.28125 21.96875 -25.1875 C 20.96875 -26.09375 19.582031 -26.546875 17.8125 -26.546875 C 16.601562 -26.546875 15.519531 -26.347656 14.5625 -25.953125 C 13.613281 -25.554688 12.8125 -25.101562 12.15625 -24.59375 C 11.363281 -24.03125 10.6875 -23.398438 10.125 -22.703125 L 4.546875 -28.296875 C 5.523438 -29.503906 6.710938 -30.597656 8.109375 -31.578125 C 9.316406 -32.410156 10.78125 -33.175781 12.5 -33.875 C 14.226562 -34.570312 16.234375 -34.921875 18.515625 -34.921875 C 20.703125 -34.921875 22.691406 -34.570312 24.484375 -33.875 C 26.273438 -33.175781 27.820312 -32.207031 29.125 -30.96875 C 30.4375 -29.738281 31.441406 -28.296875 32.140625 -26.640625 C 32.835938 -24.992188 33.1875 -23.21875 33.1875 -21.3125 L 33.1875 0 L 23.75 0 L 23.75 -4.1875 L 23.40625 -4.1875 C 22.65625 -3.257812 21.789062 -2.445312 20.8125 -1.75 C 19.976562 -1.09375 18.921875 -0.519531 17.640625 -0.03125 C 16.359375 0.457031 14.898438 0.703125 13.265625 0.703125 Z M 16.421875 -6.984375 C 18.515625 -6.984375 20.257812 -7.691406 21.65625 -9.109375 C 23.050781 -10.535156 23.75 -12.390625 23.75 -14.671875 L 23.75 -15.375 L 16.0625 -13.96875 C 14.851562 -13.738281 13.910156 -13.320312 13.234375 -12.71875 C 12.554688 -12.113281 12.21875 -11.367188 12.21875 -10.484375 C 12.21875 -9.410156 12.566406 -8.554688 13.265625 -7.921875 C 13.972656 -7.296875 15.023438 -6.984375 16.421875 -6.984375 Z M 16.421875 -6.984375 "/></g></g></g><g fill="#ffffff" fill-opacity="1"><g transform="translate(300.263923, 84.855888)"><g><path d="M 25.5 0.703125 C 23.632812 0.703125 22.035156 0.410156 20.703125 -0.171875 C 19.378906 -0.753906 18.253906 -1.394531 17.328125 -2.09375 C 16.253906 -2.9375 15.367188 -3.867188 14.671875 -4.890625 L 14.328125 -4.890625 L 14.328125 0 L 4.890625 0 L 4.890625 -48.90625 L 14.328125 -48.90625 L 14.328125 -29.34375 L 14.671875 -29.34375 C 15.367188 -30.363281 16.253906 -31.296875 17.328125 -32.140625 C 18.253906 -32.835938 19.378906 -33.472656 20.703125 -34.046875 C 22.035156 -34.628906 23.632812 -34.921875 25.5 -34.921875 C 27.5 -34.921875 29.429688 -34.476562 31.296875 -33.59375 C 33.160156 -32.71875 34.800781 -31.5 36.21875 -29.9375 C 37.644531 -28.375 38.773438 -26.5 39.609375 -24.3125 C 40.453125 -22.125 40.875 -19.722656 40.875 -17.109375 C 40.875 -14.503906 40.453125 -12.109375 39.609375 -9.921875 C 38.773438 -7.734375 37.644531 -5.847656 36.21875 -4.265625 C 34.800781 -2.679688 33.160156 -1.457031 31.296875 -0.59375 C 29.429688 0.269531 27.5 0.703125 25.5 0.703125 Z M 22.703125 -8.03125 C 23.910156 -8.03125 25.050781 -8.265625 26.125 -8.734375 C 27.195312 -9.203125 28.128906 -9.832031 28.921875 -10.625 C 29.710938 -11.414062 30.328125 -12.367188 30.765625 -13.484375 C 31.210938 -14.597656 31.4375 -15.804688 31.4375 -17.109375 C 31.4375 -18.421875 31.210938 -19.632812 30.765625 -20.75 C 30.328125 -21.863281 29.710938 -22.816406 28.921875 -23.609375 C 28.128906 -24.398438 27.195312 -25.03125 26.125 -25.5 C 25.050781 -25.96875 23.910156 -26.203125 22.703125 -26.203125 C 21.492188 -26.203125 20.351562 -25.96875 19.28125 -25.5 C 18.207031 -25.03125 17.273438 -24.398438 16.484375 -23.609375 C 15.691406 -22.816406 15.070312 -21.863281 14.625 -20.75 C 14.1875 -19.632812 13.96875 -18.421875 13.96875 -17.109375 C 13.96875 -15.804688 14.1875 -14.597656 14.625 -13.484375 C 15.070312 -12.367188 15.691406 -11.414062 16.484375 -10.625 C 17.273438 -9.832031 18.207031 -9.203125 19.28125 -8.734375 C 20.351562 -8.265625 21.492188 -8.03125 22.703125 -8.03125 Z M 22.703125 -8.03125 "/></g></g></g><g fill="#00ffff" fill-opacity="1"><g transform="translate(118.633474, 108.657014)"><g><path d="M 0.671875 -9.0625 L 5.125 -9.0625 C 5.976562 -9.0625 6.644531 -8.847656 7.125 -8.421875 C 7.613281 -8.003906 7.859375 -7.394531 7.859375 -6.59375 C 7.859375 -6.1875 7.757812 -5.816406 7.5625 -5.484375 C 7.375 -5.148438 7.117188 -4.890625 6.796875 -4.703125 C 7.242188 -4.546875 7.578125 -4.300781 7.796875 -3.96875 C 8.023438 -3.632812 8.140625 -3.195312 8.140625 -2.65625 C 8.140625 -2.113281 8.015625 -1.640625 7.765625 -1.234375 C 7.523438 -0.835938 7.191406 -0.53125 6.765625 -0.3125 C 6.335938 -0.101562 5.863281 0 5.34375 0 L 0.671875 0 Z M 4.75 -5.375 C 5.09375 -5.375 5.363281 -5.460938 5.5625 -5.640625 C 5.757812 -5.816406 5.859375 -6.09375 5.859375 -6.46875 C 5.859375 -6.882812 5.757812 -7.171875 5.5625 -7.328125 C 5.375 -7.484375 5.082031 -7.5625 4.6875 -7.5625 L 2.640625 -7.5625 L 2.640625 -5.375 Z M 4.859375 -1.5 C 5.285156 -1.5 5.609375 -1.582031 5.828125 -1.75 C 6.046875 -1.925781 6.15625 -2.222656 6.15625 -2.640625 C 6.15625 -3.078125 6.039062 -3.390625 5.8125 -3.578125 C 5.582031 -3.765625 5.242188 -3.859375 4.796875 -3.859375 L 2.640625 -3.859375 L 2.640625 -1.5 Z M 4.859375 -1.5 "/></g></g></g><g fill="#00ffff" fill-opacity="1"><g transform="translate(130.527435, 108.657014)"><g><path d="M 4.609375 0.1875 C 3.285156 0.1875 2.285156 -0.15625 1.609375 -0.84375 C 0.941406 -1.539062 0.609375 -2.476562 0.609375 -3.65625 L 0.609375 -9.0625 L 2.578125 -9.0625 L 2.578125 -3.625 C 2.578125 -2.96875 2.757812 -2.46875 3.125 -2.125 C 3.488281 -1.78125 3.984375 -1.609375 4.609375 -1.609375 C 5.234375 -1.609375 5.722656 -1.78125 6.078125 -2.125 C 6.441406 -2.46875 6.625 -2.96875 6.625 -3.625 L 6.625 -9.0625 L 8.59375 -9.0625 L 8.59375 -3.65625 C 8.59375 -2.476562 8.257812 -1.539062 7.59375 -0.84375 C 6.925781 -0.15625 5.929688 0.1875 4.609375 0.1875 Z M 4.609375 0.1875 "/></g></g></g><g fill="#00ffff" fill-opacity="1"><g transform="translate(143.069859, 108.657014)"><g><path d="M 0.671875 -9.0625 L 2.640625 -9.0625 L 2.640625 0 L 0.671875 0 Z M 0.671875 -9.0625 "/></g></g></g><g fill="#00ffff" fill-opacity="1"><g transform="translate(149.724189, 108.657014)"><g><path d="M 0.671875 -9.0625 L 2.640625 -9.0625 L 2.640625 -1.640625 L 6.796875 -1.640625 L 6.796875 0 L 0.671875 0 Z M 0.671875 -9.0625 "/></g></g></g><g fill="#00ffff" fill-opacity="1"><g transform="translate(160.00994, 108.657014)"><g><path d="M 0.671875 -9.0625 L 3.828125 -9.0625 C 4.804688 -9.0625 5.664062 -8.878906 6.40625 -8.515625 C 7.144531 -8.148438 7.710938 -7.628906 8.109375 -6.953125 C 8.503906 -6.285156 8.703125 -5.492188 8.703125 -4.578125 C 8.703125 -3.078125 8.257812 -1.9375 7.375 -1.15625 C 6.5 -0.382812 5.28125 0 3.71875 0 L 0.671875 0 Z M 3.828125 -1.640625 C 4.753906 -1.640625 5.460938 -1.898438 5.953125 -2.421875 C 6.441406 -2.941406 6.6875 -3.660156 6.6875 -4.578125 C 6.6875 -5.117188 6.578125 -5.601562 6.359375 -6.03125 C 6.148438 -6.46875 5.835938 -6.804688 5.421875 -7.046875 C 5.003906 -7.296875 4.515625 -7.421875 3.953125 -7.421875 L 2.640625 -7.421875 L 2.640625 -1.640625 Z M 3.828125 -1.640625 "/></g></g></g><g fill="#00ffff" fill-opacity="1"><g transform="translate(172.448605, 108.657014)"><g/></g></g><g fill="#00ffff" fill-opacity="1"><g transform="translate(180.309078, 108.657014)"><g><path d="M 0.421875 -10.53125 L 2.390625 -10.53125 L 2.390625 1.875 L 0.421875 1.875 Z M 0.421875 -10.53125 "/></g></g></g><g fill="#00ffff" fill-opacity="1"><g transform="translate(186.444623, 108.657014)"><g/></g></g><g fill="#00ffff" fill-opacity="1"><g transform="translate(194.305095, 108.657014)"><g><path d="M 2.84375 -7.421875 L 0.1875 -7.421875 L 0.1875 -9.0625 L 7.453125 -9.0625 L 7.453125 -7.421875 L 4.8125 -7.421875 L 4.8125 0 L 2.84375 0 Z M 2.84375 -7.421875 "/></g></g></g><g fill="#00ffff" fill-opacity="1"><g transform="translate(205.278229, 108.657014)"><g><path d="M 0.671875 -9.0625 L 6.96875 -9.0625 L 6.96875 -7.421875 L 2.640625 -7.421875 L 2.640625 -5.3125 L 5.828125 -5.3125 L 5.828125 -3.734375 L 2.640625 -3.734375 L 2.640625 -1.640625 L 6.96875 -1.640625 L 6.96875 0 L 0.671875 0 Z M 0.671875 -9.0625 "/></g></g></g><g fill="#00ffff" fill-opacity="1"><g transform="translate(215.849311, 108.657014)"><g><path d="M 3.390625 0.1875 C 2.835938 0.1875 2.289062 0.132812 1.75 0.03125 C 1.207031 -0.0625 0.765625 -0.195312 0.421875 -0.375 L 0.421875 -2.109375 C 0.878906 -1.890625 1.351562 -1.722656 1.84375 -1.609375 C 2.332031 -1.492188 2.800781 -1.4375 3.25 -1.4375 C 3.75 -1.4375 4.128906 -1.519531 4.390625 -1.6875 C 4.648438 -1.863281 4.78125 -2.109375 4.78125 -2.421875 C 4.78125 -2.648438 4.710938 -2.84375 4.578125 -3 C 4.453125 -3.15625 4.265625 -3.296875 4.015625 -3.421875 C 3.773438 -3.546875 3.398438 -3.710938 2.890625 -3.921875 C 2.046875 -4.265625 1.429688 -4.648438 1.046875 -5.078125 C 0.671875 -5.503906 0.484375 -6.035156 0.484375 -6.671875 C 0.484375 -7.179688 0.617188 -7.628906 0.890625 -8.015625 C 1.171875 -8.410156 1.5625 -8.71875 2.0625 -8.9375 C 2.5625 -9.15625 3.140625 -9.265625 3.796875 -9.265625 C 4.335938 -9.265625 4.8125 -9.21875 5.21875 -9.125 C 5.632812 -9.039062 6.046875 -8.910156 6.453125 -8.734375 L 6.453125 -7.046875 C 5.679688 -7.421875 4.914062 -7.609375 4.15625 -7.609375 C 3.675781 -7.609375 3.296875 -7.523438 3.015625 -7.359375 C 2.742188 -7.191406 2.609375 -6.953125 2.609375 -6.640625 C 2.609375 -6.410156 2.671875 -6.222656 2.796875 -6.078125 C 2.929688 -5.929688 3.113281 -5.800781 3.34375 -5.6875 C 3.582031 -5.582031 3.960938 -5.421875 4.484375 -5.203125 C 5.097656 -4.941406 5.578125 -4.691406 5.921875 -4.453125 C 6.273438 -4.210938 6.53125 -3.929688 6.6875 -3.609375 C 6.851562 -3.285156 6.9375 -2.882812 6.9375 -2.40625 C 6.9375 -1.59375 6.640625 -0.957031 6.046875 -0.5 C 5.453125 -0.0390625 4.566406 0.1875 3.390625 0.1875 Z M 3.390625 0.1875 "/></g></g></g><g fill="#00ffff" fill-opacity="1"><g transform="translate(226.537112, 108.657014)"><g><path d="M 2.84375 -7.421875 L 0.1875 -7.421875 L 0.1875 -9.0625 L 7.453125 -9.0625 L 7.453125 -7.421875 L 4.8125 -7.421875 L 4.8125 0 L 2.84375 0 Z M 2.84375 -7.421875 "/></g></g></g><g fill="#00ffff" fill-opacity="1"><g transform="translate(237.510246, 108.657014)"><g/></g></g><g fill="#00ffff" fill-opacity="1"><g transform="translate(245.370718, 108.657014)"><g><path d="M 0.421875 -10.53125 L 2.390625 -10.53125 L 2.390625 1.875 L 0.421875 1.875 Z M 0.421875 -10.53125 "/></g></g></g><g fill="#00ffff" fill-opacity="1"><g transform="translate(251.506263, 108.657014)"><g/></g></g><g fill="#00ffff" fill-opacity="1"><g transform="translate(259.366736, 108.657014)"><g><path d="M 0.671875 -9.0625 L 3.828125 -9.0625 C 4.804688 -9.0625 5.664062 -8.878906 6.40625 -8.515625 C 7.144531 -8.148438 7.710938 -7.628906 8.109375 -6.953125 C 8.503906 -6.285156 8.703125 -5.492188 8.703125 -4.578125 C 8.703125 -3.078125 8.257812 -1.9375 7.375 -1.15625 C 6.5 -0.382812 5.28125 0 3.71875 0 L 0.671875 0 Z M 3.828125 -1.640625 C 4.753906 -1.640625 5.460938 -1.898438 5.953125 -2.421875 C 6.441406 -2.941406 6.6875 -3.660156 6.6875 -4.578125 C 6.6875 -5.117188 6.578125 -5.601562 6.359375 -6.03125 C 6.148438 -6.46875 5.835938 -6.804688 5.421875 -7.046875 C 5.003906 -7.296875 4.515625 -7.421875 3.953125 -7.421875 L 2.640625 -7.421875 L 2.640625 -1.640625 Z M 3.828125 -1.640625 "/></g></g></g><g fill="#00ffff" fill-opacity="1"><g transform="translate(271.805401, 108.657014)"><g><path d="M 0.671875 -9.0625 L 6.96875 -9.0625 L 6.96875 -7.421875 L 2.640625 -7.421875 L 2.640625 -5.3125 L 5.828125 -5.3125 L 5.828125 -3.734375 L 2.640625 -3.734375 L 2.640625 -1.640625 L 6.96875 -1.640625 L 6.96875 0 L 0.671875 0 Z M 0.671875 -9.0625 "/></g></g></g><g fill="#00ffff" fill-opacity="1"><g transform="translate(282.376482, 108.657014)"><g><path d="M 0.671875 -9.0625 L 4.484375 -9.0625 C 5.515625 -9.0625 6.335938 -8.789062 6.953125 -8.25 C 7.566406 -7.707031 7.875 -6.957031 7.875 -6 C 7.875 -5.019531 7.566406 -4.265625 6.953125 -3.734375 C 6.347656 -3.203125 5.523438 -2.9375 4.484375 -2.9375 L 2.640625 -2.9375 L 2.640625 0 L 0.671875 0 Z M 4.203125 -4.59375 C 5.316406 -4.59375 5.875 -5.0625 5.875 -6 C 5.875 -6.53125 5.722656 -6.898438 5.421875 -7.109375 C 5.128906 -7.316406 4.722656 -7.421875 4.203125 -7.421875 L 2.640625 -7.421875 L 2.640625 -4.59375 Z M 4.203125 -4.59375 "/></g></g></g><g fill="#00ffff" fill-opacity="1"><g transform="translate(293.803541, 108.657014)"><g><path d="M 0.671875 -9.0625 L 2.640625 -9.0625 L 2.640625 -1.640625 L 6.796875 -1.640625 L 6.796875 0 L 0.671875 0 Z M 0.671875 -9.0625 "/></g></g></g><g fill="#00ffff" fill-opacity="1"><g transform="translate(304.08929, 108.657014)"><g><path d="M 5.265625 0.1875 C 4.359375 0.1875 3.535156 -0.0078125 2.796875 -0.40625 C 2.054688 -0.800781 1.472656 -1.351562 1.046875 -2.0625 C 0.628906 -2.78125 0.421875 -3.601562 0.421875 -4.53125 C 0.421875 -5.445312 0.628906 -6.265625 1.046875 -6.984375 C 1.472656 -7.703125 2.054688 -8.257812 2.796875 -8.65625 C 3.535156 -9.0625 4.359375 -9.265625 5.265625 -9.265625 C 6.171875 -9.265625 6.988281 -9.0625 7.71875 -8.65625 C 8.445312 -8.257812 9.023438 -7.703125 9.453125 -6.984375 C 9.878906 -6.265625 10.09375 -5.445312 10.09375 -4.53125 C 10.09375 -3.601562 9.878906 -2.78125 9.453125 -2.0625 C 9.023438 -1.351562 8.445312 -0.800781 7.71875 -0.40625 C 6.988281 -0.0078125 6.171875 0.1875 5.265625 0.1875 Z M 5.265625 -1.625 C 5.785156 -1.625 6.257812 -1.738281 6.6875 -1.96875 C 7.113281 -2.207031 7.453125 -2.546875 7.703125 -2.984375 C 7.953125 -3.421875 8.078125 -3.9375 8.078125 -4.53125 C 8.078125 -5.101562 7.953125 -5.609375 7.703125 -6.046875 C 7.460938 -6.484375 7.128906 -6.820312 6.703125 -7.0625 C 6.273438 -7.300781 5.796875 -7.421875 5.265625 -7.421875 C 4.734375 -7.421875 4.25 -7.300781 3.8125 -7.0625 C 3.382812 -6.820312 3.046875 -6.484375 2.796875 -6.046875 C 2.546875 -5.609375 2.421875 -5.101562 2.421875 -4.53125 C 2.421875 -3.9375 2.546875 -3.421875 2.796875 -2.984375 C 3.046875 -2.546875 3.382812 -2.207031 3.8125 -1.96875 C 4.25 -1.738281 4.734375 -1.625 5.265625 -1.625 Z M 5.265625 -1.625 "/></g></g></g><g fill="#00ffff" fill-opacity="1"><g transform="translate(317.915699, 108.657014)"><g><path d="M 3.734375 -3.453125 L 0.421875 -9.0625 L 2.515625 -9.0625 L 4.703125 -5.296875 L 6.984375 -9.0625 L 9.0625 -9.0625 L 5.671875 -3.453125 L 5.671875 0 L 3.734375 0 Z M 3.734375 -3.453125 "/></g></g></g></svg>