<svg xmlns="http://www.w3.org/2000/svg" xmlns:xlink="http://www.w3.org/1999/xlink" width="2075" zoomAndPan="magnify" viewBox="0 0 1556.25 572.249966" height="763" preserveAspectRatio="xMidYMid meet" version="1.0"><defs><g/><clipPath id="34659c814a"><path d="M 8 89.621094 L 332 89.621094 L 332 425 L 8 425 Z M 8 89.621094 " clip-rule="nonzero"/></clipPath><clipPath id="5d73621ce7"><path d="M 193.816406 316.542969 C 214.765625 316.542969 224.074219 334 238.039062 347.960938 C 245.019531 354.945312 257.820312 354.945312 264.804688 347.960938 L 298.550781 314.214844 C 305.535156 307.234375 305.535156 294.433594 298.550781 287.449219 L 264.804688 253.703125 C 252.003906 240.902344 236.875 232.757812 247.347656 224.609375 C 252.003906 221.121094 255.496094 218.792969 263.640625 218.792969 C 276.441406 218.792969 281.09375 229.265625 290.40625 237.410156 C 295.058594 242.066406 302.042969 242.066406 306.695312 237.410156 L 327.644531 216.464844 C 332.296875 211.808594 332.296875 204.828125 327.644531 200.171875 L 306.695312 179.226562 C 302.042969 174.570312 295.058594 174.570312 290.40625 179.226562 C 282.257812 187.371094 275.277344 199.007812 263.640625 199.007812 C 252.003906 199.007812 245.019531 187.371094 236.875 179.226562 C 232.21875 174.570312 225.238281 174.570312 220.582031 179.226562 L 199.636719 200.171875 C 194.980469 204.828125 194.980469 211.808594 199.636719 216.464844 C 217.09375 233.921875 246.183594 244.394531 232.21875 260.683594 C 221.746094 273.484375 210.109375 287.449219 193.816406 287.449219 C 174.035156 287.449219 162.398438 267.667969 148.433594 253.703125 C 141.453125 246.71875 128.652344 246.71875 121.667969 253.703125 L 87.921875 287.449219 C 80.9375 294.433594 80.9375 307.234375 87.921875 314.214844 L 121.667969 347.960938 C 128.652344 354.945312 141.453125 354.945312 148.433594 347.960938 C 163.5625 332.835938 171.707031 316.542969 193.816406 316.542969 Z M 158.90625 185.042969 L 224.074219 250.210938 C 215.929688 260.683594 204.292969 273.484375 193.816406 273.484375 C 179.855469 273.484375 165.890625 252.539062 156.578125 243.230469 C 144.941406 231.59375 125.160156 231.59375 112.359375 243.230469 L 78.613281 276.976562 C 66.976562 288.613281 66.976562 308.398438 78.613281 321.199219 L 112.359375 354.945312 C 123.996094 366.582031 143.777344 366.582031 156.578125 354.945312 C 167.054688 344.472656 177.527344 327.015625 193.816406 327.015625 C 206.617188 327.015625 215.929688 338.652344 224.074219 349.125 L 158.90625 414.292969 C 144.941406 428.257812 122.832031 428.257812 108.867188 414.292969 L 19.261719 324.6875 C 5.296875 310.722656 5.296875 288.613281 19.261719 274.648438 L 108.867188 185.042969 C 122.832031 171.082031 144.941406 171.082031 158.90625 185.042969 Z M 277.605469 116.386719 L 290.40625 129.1875 C 293.894531 132.679688 299.714844 132.679688 303.207031 129.1875 L 316.007812 116.386719 C 319.496094 112.894531 319.496094 107.078125 316.007812 103.585938 L 303.207031 90.785156 C 299.714844 87.292969 293.894531 87.292969 290.40625 90.785156 L 277.605469 103.585938 C 274.113281 107.078125 274.113281 112.894531 277.605469 116.386719 Z M 277.605469 116.386719 " clip-rule="evenodd"/></clipPath><linearGradient x1="0.115" gradientTransform="matrix(116.369968, 0, 0, 116.369968, 7.626217, 89.621166)" y1="3.025" x2="2.965" gradientUnits="userSpaceOnUse" y2="0.175" id="356dc3e8fa"><stop stop-opacity="1" stop-color="rgb(0%, 39.199829%, 60.398865%)" offset="0"/><stop stop-opacity="1" stop-color="rgb(0%, 39.199829%, 60.398865%)" offset="0.125"/><stop stop-opacity="1" stop-color="rgb(0%, 39.199829%, 60.398865%)" offset="0.15625"/><stop stop-opacity="1" stop-color="rgb(0%, 39.280701%, 60.450745%)" offset="0.171875"/><stop stop-opacity="1" stop-color="rgb(0%, 39.732361%, 60.746765%)" offset="0.175781"/><stop stop-opacity="1" stop-color="rgb(0%, 40.104675%, 60.98938%)" offset="0.179688"/><stop stop-opacity="1" stop-color="rgb(0%, 40.47699%, 61.230469%)" offset="0.183594"/><stop stop-opacity="1" stop-color="rgb(0%, 40.849304%, 61.473083%)" offset="0.1875"/><stop stop-opacity="1" stop-color="rgb(0%, 41.220093%, 61.715698%)" offset="0.191406"/><stop stop-opacity="1" stop-color="rgb(0%, 41.592407%, 61.958313%)" offset="0.195313"/><stop stop-opacity="1" stop-color="rgb(0%, 41.964722%, 62.199402%)" offset="0.199219"/><stop stop-opacity="1" stop-color="rgb(0%, 42.337036%, 62.442017%)" offset="0.203125"/><stop stop-opacity="1" stop-color="rgb(0%, 42.707825%, 62.684631%)" offset="0.207031"/><stop stop-opacity="1" stop-color="rgb(0%, 43.080139%, 62.927246%)" offset="0.210938"/><stop stop-opacity="1" stop-color="rgb(0%, 43.450928%, 63.168335%)" offset="0.214844"/><stop stop-opacity="1" stop-color="rgb(0%, 43.823242%, 63.41095%)" offset="0.21875"/><stop stop-opacity="1" stop-color="rgb(0%, 44.195557%, 63.653564%)" offset="0.222656"/><stop stop-opacity="1" stop-color="rgb(0%, 44.567871%, 63.896179%)" offset="0.226563"/><stop stop-opacity="1" stop-color="rgb(0%, 44.93866%, 64.137268%)" offset="0.230469"/><stop stop-opacity="1" stop-color="rgb(0%, 45.310974%, 64.379883%)" offset="0.234375"/><stop stop-opacity="1" stop-color="rgb(0%, 45.683289%, 64.622498%)" offset="0.238281"/><stop stop-opacity="1" stop-color="rgb(0%, 46.055603%, 64.865112%)" offset="0.242188"/><stop stop-opacity="1" stop-color="rgb(0%, 46.426392%, 65.106201%)" offset="0.246094"/><stop stop-opacity="1" stop-color="rgb(0%, 46.798706%, 65.348816%)" offset="0.25"/><stop stop-opacity="1" stop-color="rgb(0%, 47.171021%, 65.591431%)" offset="0.253906"/><stop stop-opacity="1" stop-color="rgb(0%, 47.543335%, 65.834045%)" offset="0.257813"/><stop stop-opacity="1" stop-color="rgb(0%, 47.914124%, 66.075134%)" offset="0.261719"/><stop stop-opacity="1" stop-color="rgb(0%, 48.286438%, 66.317749%)" offset="0.265625"/><stop stop-opacity="1" stop-color="rgb(0%, 48.658752%, 66.560364%)" offset="0.269531"/><stop stop-opacity="1" stop-color="rgb(0%, 49.031067%, 66.802979%)" offset="0.273438"/><stop stop-opacity="1" stop-color="rgb(0%, 49.401855%, 67.044067%)" offset="0.277344"/><stop stop-opacity="1" stop-color="rgb(0%, 49.77417%, 67.286682%)" offset="0.28125"/><stop stop-opacity="1" stop-color="rgb(0%, 50.146484%, 67.529297%)" offset="0.285156"/><stop stop-opacity="1" stop-color="rgb(0%, 50.518799%, 67.771912%)" offset="0.289062"/><stop stop-opacity="1" stop-color="rgb(0%, 50.889587%, 68.013%)" offset="0.292969"/><stop stop-opacity="1" stop-color="rgb(0%, 51.261902%, 68.255615%)" offset="0.296875"/><stop stop-opacity="1" stop-color="rgb(0%, 51.634216%, 68.49823%)" offset="0.300781"/><stop stop-opacity="1" stop-color="rgb(0%, 52.006531%, 68.740845%)" offset="0.304688"/><stop stop-opacity="1" stop-color="rgb(0%, 52.377319%, 68.981934%)" offset="0.308594"/><stop stop-opacity="1" stop-color="rgb(0%, 52.749634%, 69.224548%)" offset="0.3125"/><stop stop-opacity="1" stop-color="rgb(0%, 53.121948%, 69.467163%)" offset="0.316406"/><stop stop-opacity="1" stop-color="rgb(0%, 53.494263%, 69.709778%)" offset="0.320312"/><stop stop-opacity="1" stop-color="rgb(0%, 53.865051%, 69.950867%)" offset="0.324219"/><stop stop-opacity="1" stop-color="rgb(0%, 54.237366%, 70.193481%)" offset="0.328125"/><stop stop-opacity="1" stop-color="rgb(0%, 54.60968%, 70.436096%)" offset="0.332031"/><stop stop-opacity="1" stop-color="rgb(0%, 54.981995%, 70.678711%)" offset="0.335938"/><stop stop-opacity="1" stop-color="rgb(0%, 55.352783%, 70.9198%)" offset="0.339844"/><stop stop-opacity="1" stop-color="rgb(0%, 55.725098%, 71.162415%)" offset="0.34375"/><stop stop-opacity="1" stop-color="rgb(0%, 56.095886%, 71.405029%)" offset="0.347656"/><stop stop-opacity="1" stop-color="rgb(0%, 56.468201%, 71.647644%)" offset="0.351562"/><stop stop-opacity="1" stop-color="rgb(0%, 56.840515%, 71.888733%)" offset="0.355469"/><stop stop-opacity="1" stop-color="rgb(0%, 57.21283%, 72.131348%)" offset="0.359375"/><stop stop-opacity="1" stop-color="rgb(0%, 57.583618%, 72.373962%)" offset="0.363281"/><stop stop-opacity="1" stop-color="rgb(0%, 57.955933%, 72.616577%)" offset="0.367188"/><stop stop-opacity="1" stop-color="rgb(0%, 58.328247%, 72.857666%)" offset="0.371094"/><stop stop-opacity="1" stop-color="rgb(0%, 58.700562%, 73.100281%)" offset="0.375"/><stop stop-opacity="1" stop-color="rgb(0%, 59.07135%, 73.342896%)" offset="0.378906"/><stop stop-opacity="1" stop-color="rgb(0%, 59.443665%, 73.58551%)" offset="0.382812"/><stop stop-opacity="1" stop-color="rgb(0%, 59.815979%, 73.826599%)" offset="0.386719"/><stop stop-opacity="1" stop-color="rgb(0%, 60.188293%, 74.069214%)" offset="0.390625"/><stop stop-opacity="1" stop-color="rgb(0%, 60.559082%, 74.311829%)" offset="0.394531"/><stop stop-opacity="1" stop-color="rgb(0%, 60.931396%, 74.554443%)" offset="0.398438"/><stop stop-opacity="1" stop-color="rgb(0%, 61.303711%, 74.795532%)" offset="0.402344"/><stop stop-opacity="1" stop-color="rgb(0%, 61.676025%, 75.038147%)" offset="0.40625"/><stop stop-opacity="1" stop-color="rgb(0%, 62.046814%, 75.280762%)" offset="0.410156"/><stop stop-opacity="1" stop-color="rgb(0%, 62.419128%, 75.523376%)" offset="0.414062"/><stop stop-opacity="1" stop-color="rgb(0%, 62.791443%, 75.764465%)" offset="0.417969"/><stop stop-opacity="1" stop-color="rgb(0%, 63.163757%, 76.00708%)" offset="0.421875"/><stop stop-opacity="1" stop-color="rgb(0%, 63.534546%, 76.249695%)" offset="0.425781"/><stop stop-opacity="1" stop-color="rgb(0%, 63.90686%, 76.49231%)" offset="0.429688"/><stop stop-opacity="1" stop-color="rgb(0%, 64.279175%, 76.733398%)" offset="0.433594"/><stop stop-opacity="1" stop-color="rgb(0%, 64.651489%, 76.976013%)" offset="0.4375"/><stop stop-opacity="1" stop-color="rgb(0%, 65.022278%, 77.218628%)" offset="0.441406"/><stop stop-opacity="1" stop-color="rgb(0%, 65.394592%, 77.461243%)" offset="0.445313"/><stop stop-opacity="1" stop-color="rgb(0%, 65.766907%, 77.702332%)" offset="0.449219"/><stop stop-opacity="1" stop-color="rgb(0%, 66.139221%, 77.944946%)" offset="0.453125"/><stop stop-opacity="1" stop-color="rgb(0%, 66.51001%, 78.187561%)" offset="0.457031"/><stop stop-opacity="1" stop-color="rgb(0%, 66.882324%, 78.430176%)" offset="0.460938"/><stop stop-opacity="1" stop-color="rgb(0%, 67.253113%, 78.671265%)" offset="0.464844"/><stop stop-opacity="1" stop-color="rgb(0%, 67.625427%, 78.913879%)" offset="0.46875"/><stop stop-opacity="1" stop-color="rgb(0%, 67.997742%, 79.156494%)" offset="0.472656"/><stop stop-opacity="1" stop-color="rgb(0%, 68.370056%, 79.399109%)" offset="0.476563"/><stop stop-opacity="1" stop-color="rgb(0%, 68.740845%, 79.640198%)" offset="0.480469"/><stop stop-opacity="1" stop-color="rgb(0%, 69.113159%, 79.882812%)" offset="0.484375"/><stop stop-opacity="1" stop-color="rgb(0%, 69.485474%, 80.125427%)" offset="0.488281"/><stop stop-opacity="1" stop-color="rgb(0%, 69.857788%, 80.368042%)" offset="0.492188"/><stop stop-opacity="1" stop-color="rgb(0%, 70.228577%, 80.609131%)" offset="0.496094"/><stop stop-opacity="1" stop-color="rgb(0%, 70.600891%, 80.851746%)" offset="0.5"/><stop stop-opacity="1" stop-color="rgb(0%, 70.973206%, 81.09436%)" offset="0.503906"/><stop stop-opacity="1" stop-color="rgb(0%, 71.34552%, 81.336975%)" offset="0.507812"/><stop stop-opacity="1" stop-color="rgb(0%, 71.716309%, 81.578064%)" offset="0.511719"/><stop stop-opacity="1" stop-color="rgb(0%, 72.088623%, 81.820679%)" offset="0.515625"/><stop stop-opacity="1" stop-color="rgb(0%, 72.460938%, 82.063293%)" offset="0.519531"/><stop stop-opacity="1" stop-color="rgb(0%, 72.833252%, 82.305908%)" offset="0.523438"/><stop stop-opacity="1" stop-color="rgb(0%, 73.204041%, 82.546997%)" offset="0.527344"/><stop stop-opacity="1" stop-color="rgb(0%, 73.576355%, 82.789612%)" offset="0.53125"/><stop stop-opacity="1" stop-color="rgb(0%, 73.948669%, 83.032227%)" offset="0.535156"/><stop stop-opacity="1" stop-color="rgb(0%, 74.320984%, 83.274841%)" offset="0.539062"/><stop stop-opacity="1" stop-color="rgb(0%, 74.691772%, 83.51593%)" offset="0.542969"/><stop stop-opacity="1" stop-color="rgb(0%, 75.064087%, 83.758545%)" offset="0.546875"/><stop stop-opacity="1" stop-color="rgb(0%, 75.436401%, 84.00116%)" offset="0.550781"/><stop stop-opacity="1" stop-color="rgb(0%, 75.808716%, 84.243774%)" offset="0.554688"/><stop stop-opacity="1" stop-color="rgb(0%, 76.179504%, 84.484863%)" offset="0.558594"/><stop stop-opacity="1" stop-color="rgb(0%, 76.551819%, 84.727478%)" offset="0.5625"/><stop stop-opacity="1" stop-color="rgb(0%, 76.924133%, 84.970093%)" offset="0.566406"/><stop stop-opacity="1" stop-color="rgb(0%, 77.296448%, 85.212708%)" offset="0.570312"/><stop stop-opacity="1" stop-color="rgb(0%, 77.667236%, 85.453796%)" offset="0.574219"/><stop stop-opacity="1" stop-color="rgb(0%, 78.039551%, 85.696411%)" offset="0.578125"/><stop stop-opacity="1" stop-color="rgb(0%, 78.411865%, 85.939026%)" offset="0.582031"/><stop stop-opacity="1" stop-color="rgb(0%, 78.78418%, 86.181641%)" offset="0.585938"/><stop stop-opacity="1" stop-color="rgb(0%, 79.154968%, 86.422729%)" offset="0.589844"/><stop stop-opacity="1" stop-color="rgb(0%, 79.527283%, 86.665344%)" offset="0.59375"/><stop stop-opacity="1" stop-color="rgb(0%, 79.898071%, 86.907959%)" offset="0.597656"/><stop stop-opacity="1" stop-color="rgb(0%, 80.270386%, 87.150574%)" offset="0.601562"/><stop stop-opacity="1" stop-color="rgb(0%, 80.6427%, 87.391663%)" offset="0.605469"/><stop stop-opacity="1" stop-color="rgb(0%, 81.015015%, 87.634277%)" offset="0.609375"/><stop stop-opacity="1" stop-color="rgb(0%, 81.385803%, 87.876892%)" offset="0.613281"/><stop stop-opacity="1" stop-color="rgb(0%, 81.758118%, 88.119507%)" offset="0.617188"/><stop stop-opacity="1" stop-color="rgb(0%, 82.130432%, 88.360596%)" offset="0.621094"/><stop stop-opacity="1" stop-color="rgb(0%, 82.502747%, 88.60321%)" offset="0.625"/><stop stop-opacity="1" stop-color="rgb(0%, 82.873535%, 88.845825%)" offset="0.628906"/><stop stop-opacity="1" stop-color="rgb(0%, 83.24585%, 89.08844%)" offset="0.632812"/><stop stop-opacity="1" stop-color="rgb(0%, 83.618164%, 89.329529%)" offset="0.636719"/><stop stop-opacity="1" stop-color="rgb(0%, 83.990479%, 89.572144%)" offset="0.640625"/><stop stop-opacity="1" stop-color="rgb(0%, 84.361267%, 89.814758%)" offset="0.644531"/><stop stop-opacity="1" stop-color="rgb(0%, 84.733582%, 90.057373%)" offset="0.648438"/><stop stop-opacity="1" stop-color="rgb(0%, 85.105896%, 90.298462%)" offset="0.652344"/><stop stop-opacity="1" stop-color="rgb(0%, 85.47821%, 90.541077%)" offset="0.65625"/><stop stop-opacity="1" stop-color="rgb(0%, 85.848999%, 90.783691%)" offset="0.660156"/><stop stop-opacity="1" stop-color="rgb(0%, 86.221313%, 91.026306%)" offset="0.664062"/><stop stop-opacity="1" stop-color="rgb(0%, 86.593628%, 91.267395%)" offset="0.667969"/><stop stop-opacity="1" stop-color="rgb(0%, 86.965942%, 91.51001%)" offset="0.671875"/><stop stop-opacity="1" stop-color="rgb(0%, 87.336731%, 91.752625%)" offset="0.675781"/><stop stop-opacity="1" stop-color="rgb(0%, 87.709045%, 91.995239%)" offset="0.679688"/><stop stop-opacity="1" stop-color="rgb(0%, 88.08136%, 92.236328%)" offset="0.683594"/><stop stop-opacity="1" stop-color="rgb(0%, 88.453674%, 92.478943%)" offset="0.6875"/><stop stop-opacity="1" stop-color="rgb(0%, 88.824463%, 92.721558%)" offset="0.691406"/><stop stop-opacity="1" stop-color="rgb(0%, 89.196777%, 92.964172%)" offset="0.695312"/><stop stop-opacity="1" stop-color="rgb(0%, 89.569092%, 93.205261%)" offset="0.699219"/><stop stop-opacity="1" stop-color="rgb(0%, 89.941406%, 93.447876%)" offset="0.703125"/><stop stop-opacity="1" stop-color="rgb(0%, 90.312195%, 93.690491%)" offset="0.707031"/><stop stop-opacity="1" stop-color="rgb(0%, 90.684509%, 93.933105%)" offset="0.710938"/><stop stop-opacity="1" stop-color="rgb(0%, 91.055298%, 94.174194%)" offset="0.714844"/><stop stop-opacity="1" stop-color="rgb(0%, 91.427612%, 94.416809%)" offset="0.71875"/><stop stop-opacity="1" stop-color="rgb(0%, 91.799927%, 94.659424%)" offset="0.722656"/><stop stop-opacity="1" stop-color="rgb(0%, 92.172241%, 94.902039%)" offset="0.726562"/><stop stop-opacity="1" stop-color="rgb(0%, 92.54303%, 95.143127%)" offset="0.730469"/><stop stop-opacity="1" stop-color="rgb(0%, 92.915344%, 95.385742%)" offset="0.734375"/><stop stop-opacity="1" stop-color="rgb(0%, 93.287659%, 95.628357%)" offset="0.738281"/><stop stop-opacity="1" stop-color="rgb(0%, 93.659973%, 95.870972%)" offset="0.742188"/><stop stop-opacity="1" stop-color="rgb(0%, 94.030762%, 96.112061%)" offset="0.746094"/><stop stop-opacity="1" stop-color="rgb(0%, 94.403076%, 96.354675%)" offset="0.75"/><stop stop-opacity="1" stop-color="rgb(0%, 94.775391%, 96.59729%)" offset="0.753906"/><stop stop-opacity="1" stop-color="rgb(0%, 95.147705%, 96.839905%)" offset="0.757812"/><stop stop-opacity="1" stop-color="rgb(0%, 95.518494%, 97.080994%)" offset="0.761719"/><stop stop-opacity="1" stop-color="rgb(0%, 95.890808%, 97.323608%)" offset="0.765625"/><stop stop-opacity="1" stop-color="rgb(0%, 96.263123%, 97.566223%)" offset="0.769531"/><stop stop-opacity="1" stop-color="rgb(0%, 96.635437%, 97.808838%)" offset="0.773438"/><stop stop-opacity="1" stop-color="rgb(0%, 97.006226%, 98.049927%)" offset="0.777344"/><stop stop-opacity="1" stop-color="rgb(0%, 97.37854%, 98.292542%)" offset="0.78125"/><stop stop-opacity="1" stop-color="rgb(0%, 97.750854%, 98.535156%)" offset="0.785156"/><stop stop-opacity="1" stop-color="rgb(0%, 98.123169%, 98.777771%)" offset="0.789063"/><stop stop-opacity="1" stop-color="rgb(0%, 98.493958%, 99.01886%)" offset="0.792969"/><stop stop-opacity="1" stop-color="rgb(0%, 98.866272%, 99.261475%)" offset="0.796875"/><stop stop-opacity="1" stop-color="rgb(0%, 99.238586%, 99.504089%)" offset="0.800781"/><stop stop-opacity="1" stop-color="rgb(0%, 99.610901%, 99.746704%)" offset="0.804688"/><stop stop-opacity="1" stop-color="rgb(0%, 99.804688%, 99.873352%)" offset="0.8125"/><stop stop-opacity="1" stop-color="rgb(0%, 100%, 100%)" offset="0.875"/><stop stop-opacity="1" stop-color="rgb(0%, 100%, 100%)" offset="1"/></linearGradient></defs><g clip-path="url(#34659c814a)"><g clip-path="url(#5d73621ce7)"><path fill="url(#356dc3e8fa)" d="M 5.296875 89.621094 L 5.296875 425.929688 L 332.296875 425.929688 L 332.296875 89.621094 Z M 5.296875 89.621094 " fill-rule="nonzero"/></g></g><g fill="#00649a" fill-opacity="1"><g transform="translate(356.251996, 382.861432)"><g><path d="M 92.8125 3.140625 C 81.476562 3.140625 70.832031 1.046875 60.875 -3.140625 C 50.914062 -7.335938 42.210938 -13.101562 34.765625 -20.4375 C 27.316406 -27.78125 21.492188 -36.273438 17.296875 -45.921875 C 13.109375 -55.578125 11.015625 -65.960938 11.015625 -77.078125 C 11.015625 -87.984375 13.109375 -98.3125 17.296875 -108.0625 C 21.492188 -117.8125 27.316406 -126.359375 34.765625 -133.703125 C 42.210938 -141.046875 50.914062 -146.8125 60.875 -151 C 70.832031 -155.195312 81.476562 -157.296875 92.8125 -157.296875 C 103.925781 -157.296875 113.46875 -155.671875 121.4375 -152.421875 C 129.40625 -149.171875 136.113281 -145.550781 141.5625 -141.5625 C 147.851562 -136.945312 153.097656 -131.707031 157.296875 -125.84375 L 130.5625 -99.09375 C 127.625 -102.65625 124.265625 -105.800781 120.484375 -108.53125 C 117.128906 -110.84375 113.144531 -112.992188 108.53125 -114.984375 C 103.914062 -116.972656 98.675781 -117.96875 92.8125 -117.96875 C 87.351562 -117.96875 82.210938 -116.921875 77.390625 -114.828125 C 72.566406 -112.734375 68.367188 -109.898438 64.796875 -106.328125 C 61.234375 -102.765625 58.457031 -98.46875 56.46875 -93.4375 C 54.476562 -88.40625 53.484375 -82.953125 53.484375 -77.078125 C 53.484375 -71.203125 54.476562 -65.75 56.46875 -60.71875 C 58.457031 -55.6875 61.234375 -51.382812 64.796875 -47.8125 C 68.367188 -44.25 72.566406 -41.414062 77.390625 -39.3125 C 82.210938 -37.21875 87.351562 -36.171875 92.8125 -36.171875 C 98.675781 -36.171875 103.914062 -37.164062 108.53125 -39.15625 C 113.144531 -41.15625 117.128906 -43.304688 120.484375 -45.609375 C 124.265625 -48.335938 127.625 -51.484375 130.5625 -55.046875 L 157.296875 -28.3125 C 153.097656 -22.4375 147.851562 -17.191406 141.5625 -12.578125 C 136.113281 -8.597656 129.40625 -4.984375 121.4375 -1.734375 C 113.46875 1.515625 103.925781 3.140625 92.8125 3.140625 Z M 92.8125 3.140625 "/></g></g></g><g fill="#00649a" fill-opacity="1"><g transform="translate(496.242923, 382.861432)"><g><path d="M 22.015625 -220.21875 L 64.484375 -220.21875 L 64.484375 -132.125 L 66.0625 -132.125 C 69.414062 -136.738281 73.296875 -140.9375 77.703125 -144.71875 C 81.484375 -147.863281 86.203125 -150.742188 91.859375 -153.359375 C 97.523438 -155.984375 104.132812 -157.296875 111.6875 -157.296875 C 119.445312 -157.296875 126.785156 -155.773438 133.703125 -152.734375 C 140.617188 -149.691406 146.644531 -145.390625 151.78125 -139.828125 C 156.925781 -134.273438 160.96875 -127.515625 163.90625 -119.546875 C 166.84375 -111.578125 168.3125 -102.664062 168.3125 -92.8125 L 168.3125 0 L 125.84375 0 L 125.84375 -86.515625 C 125.84375 -95.953125 123.320312 -103.289062 118.28125 -108.53125 C 113.25 -113.78125 106.332031 -116.40625 97.53125 -116.40625 C 88.09375 -116.40625 80.222656 -113.203125 73.921875 -106.796875 C 67.628906 -100.398438 64.484375 -92.066406 64.484375 -81.796875 L 64.484375 0 L 22.015625 0 Z M 22.015625 -220.21875 "/></g></g></g><g fill="#00649a" fill-opacity="1"><g transform="translate(661.400817, 382.861432)"><g><path d="M 59.765625 3.140625 C 52.640625 3.140625 46.191406 2.039062 40.421875 -0.15625 C 34.660156 -2.351562 29.734375 -5.445312 25.640625 -9.4375 C 21.546875 -13.425781 18.34375 -18.09375 16.03125 -23.4375 C 13.726562 -28.78125 12.578125 -34.597656 12.578125 -40.890625 C 12.578125 -53.472656 16.613281 -64.222656 24.6875 -73.140625 C 32.769531 -82.054688 43.941406 -87.769531 58.203125 -90.28125 L 106.96875 -99.09375 C 106.125 -104.550781 103.445312 -109.320312 98.9375 -113.40625 C 94.425781 -117.5 88.1875 -119.546875 80.21875 -119.546875 C 74.769531 -119.546875 69.894531 -118.65625 65.59375 -116.875 C 61.289062 -115.09375 57.671875 -113.046875 54.734375 -110.734375 C 51.171875 -108.222656 48.128906 -105.394531 45.609375 -102.25 L 20.453125 -127.40625 C 24.859375 -132.863281 30.207031 -137.796875 36.5 -142.203125 C 41.945312 -145.972656 48.550781 -149.429688 56.3125 -152.578125 C 64.070312 -155.722656 73.09375 -157.296875 83.375 -157.296875 C 93.226562 -157.296875 102.191406 -155.722656 110.265625 -152.578125 C 118.335938 -149.429688 125.3125 -145.078125 131.1875 -139.515625 C 137.0625 -133.960938 141.570312 -127.460938 144.71875 -120.015625 C 147.863281 -112.566406 149.4375 -104.546875 149.4375 -95.953125 L 149.4375 0 L 106.96875 0 L 106.96875 -18.875 L 105.390625 -18.875 C 102.035156 -14.675781 98.15625 -11.003906 93.75 -7.859375 C 89.976562 -4.921875 85.207031 -2.351562 79.4375 -0.15625 C 73.664062 2.039062 67.109375 3.140625 59.765625 3.140625 Z M 73.921875 -31.453125 C 83.367188 -31.453125 91.238281 -34.648438 97.53125 -41.046875 C 103.820312 -47.453125 106.96875 -55.789062 106.96875 -66.0625 L 106.96875 -69.203125 L 72.359375 -62.921875 C 66.898438 -61.867188 62.648438 -59.976562 59.609375 -57.25 C 56.566406 -54.53125 55.046875 -51.175781 55.046875 -47.1875 C 55.046875 -42.363281 56.617188 -38.535156 59.765625 -35.703125 C 62.910156 -32.867188 67.628906 -31.453125 73.921875 -31.453125 Z M 73.921875 -31.453125 "/></g></g></g><g fill="#00649a" fill-opacity="1"><g transform="translate(807.683475, 382.861432)"><g><path d="M 20.453125 -154.15625 L 62.921875 -154.15625 L 62.921875 0 L 20.453125 0 Z M 41.53125 -174.59375 C 34.8125 -174.59375 29.09375 -176.953125 24.375 -181.671875 C 19.65625 -186.390625 17.296875 -191.894531 17.296875 -198.1875 C 17.296875 -204.476562 19.707031 -209.984375 24.53125 -214.703125 C 29.363281 -219.421875 35.132812 -221.78125 41.84375 -221.78125 C 48.550781 -221.78125 54.265625 -219.421875 58.984375 -214.703125 C 63.703125 -209.984375 66.0625 -204.476562 66.0625 -198.1875 C 66.0625 -191.894531 63.648438 -186.390625 58.828125 -181.671875 C 54.003906 -176.953125 48.238281 -174.59375 41.53125 -174.59375 Z M 41.53125 -174.59375 "/></g></g></g><g fill="#00649a" fill-opacity="1"><g transform="translate(867.45471, 382.861432)"><g><path d="M 20.453125 -154.15625 L 62.921875 -154.15625 L 62.921875 -132.125 L 64.484375 -132.125 C 67.847656 -136.738281 71.726562 -140.9375 76.125 -144.71875 C 79.90625 -147.863281 84.625 -150.742188 90.28125 -153.359375 C 95.945312 -155.984375 102.554688 -157.296875 110.109375 -157.296875 C 117.867188 -157.296875 125.207031 -155.773438 132.125 -152.734375 C 139.050781 -149.691406 145.082031 -145.390625 150.21875 -139.828125 C 155.351562 -134.273438 159.390625 -127.515625 162.328125 -119.546875 C 165.265625 -111.578125 166.734375 -102.664062 166.734375 -92.8125 L 166.734375 0 L 124.265625 0 L 124.265625 -86.515625 C 124.265625 -95.953125 121.742188 -103.289062 116.703125 -108.53125 C 111.671875 -113.78125 104.753906 -116.40625 95.953125 -116.40625 C 86.515625 -116.40625 78.648438 -113.203125 72.359375 -106.796875 C 66.066406 -100.398438 62.921875 -92.066406 62.921875 -81.796875 L 62.921875 0 L 20.453125 0 Z M 20.453125 -154.15625 "/></g></g></g><g fill="#00649a" fill-opacity="1"><g transform="translate(1031.039719, 382.861432)"><g><path d="M 22.015625 -220.21875 L 64.484375 -220.21875 L 64.484375 0 L 22.015625 0 Z M 22.015625 -220.21875 "/></g></g></g><g fill="#00649a" fill-opacity="1"><g transform="translate(1093.95684, 382.861432)"><g><path d="M 59.765625 3.140625 C 52.640625 3.140625 46.191406 2.039062 40.421875 -0.15625 C 34.660156 -2.351562 29.734375 -5.445312 25.640625 -9.4375 C 21.546875 -13.425781 18.34375 -18.09375 16.03125 -23.4375 C 13.726562 -28.78125 12.578125 -34.597656 12.578125 -40.890625 C 12.578125 -53.472656 16.613281 -64.222656 24.6875 -73.140625 C 32.769531 -82.054688 43.941406 -87.769531 58.203125 -90.28125 L 106.96875 -99.09375 C 106.125 -104.550781 103.445312 -109.320312 98.9375 -113.40625 C 94.425781 -117.5 88.1875 -119.546875 80.21875 -119.546875 C 74.769531 -119.546875 69.894531 -118.65625 65.59375 -116.875 C 61.289062 -115.09375 57.671875 -113.046875 54.734375 -110.734375 C 51.171875 -108.222656 48.128906 -105.394531 45.609375 -102.25 L 20.453125 -127.40625 C 24.859375 -132.863281 30.207031 -137.796875 36.5 -142.203125 C 41.945312 -145.972656 48.550781 -149.429688 56.3125 -152.578125 C 64.070312 -155.722656 73.09375 -157.296875 83.375 -157.296875 C 93.226562 -157.296875 102.191406 -155.722656 110.265625 -152.578125 C 118.335938 -149.429688 125.3125 -145.078125 131.1875 -139.515625 C 137.0625 -133.960938 141.570312 -127.460938 144.71875 -120.015625 C 147.863281 -112.566406 149.4375 -104.546875 149.4375 -95.953125 L 149.4375 0 L 106.96875 0 L 106.96875 -18.875 L 105.390625 -18.875 C 102.035156 -14.675781 98.15625 -11.003906 93.75 -7.859375 C 89.976562 -4.921875 85.207031 -2.351562 79.4375 -0.15625 C 73.664062 2.039062 67.109375 3.140625 59.765625 3.140625 Z M 73.921875 -31.453125 C 83.367188 -31.453125 91.238281 -34.648438 97.53125 -41.046875 C 103.820312 -47.453125 106.96875 -55.789062 106.96875 -66.0625 L 106.96875 -69.203125 L 72.359375 -62.921875 C 66.898438 -61.867188 62.648438 -59.976562 59.609375 -57.25 C 56.566406 -54.53125 55.046875 -51.175781 55.046875 -47.1875 C 55.046875 -42.363281 56.617188 -38.535156 59.765625 -35.703125 C 62.910156 -32.867188 67.628906 -31.453125 73.921875 -31.453125 Z M 73.921875 -31.453125 "/></g></g></g><g fill="#00649a" fill-opacity="1"><g transform="translate(1240.23955, 382.861432)"><g><path d="M 114.828125 3.140625 C 106.441406 3.140625 99.257812 1.832031 93.28125 -0.78125 C 87.300781 -3.40625 82.210938 -6.289062 78.015625 -9.4375 C 73.191406 -13.207031 69.207031 -17.398438 66.0625 -22.015625 L 64.484375 -22.015625 L 64.484375 0 L 22.015625 0 L 22.015625 -220.21875 L 64.484375 -220.21875 L 64.484375 -132.125 L 66.0625 -132.125 C 69.207031 -136.738281 73.191406 -140.9375 78.015625 -144.71875 C 82.210938 -147.863281 87.300781 -150.742188 93.28125 -153.359375 C 99.257812 -155.984375 106.441406 -157.296875 114.828125 -157.296875 C 123.847656 -157.296875 132.550781 -155.300781 140.9375 -151.3125 C 149.320312 -147.332031 156.710938 -141.828125 163.109375 -134.796875 C 169.515625 -127.773438 174.601562 -119.332031 178.375 -109.46875 C 182.144531 -99.613281 184.03125 -88.816406 184.03125 -77.078125 C 184.03125 -65.328125 182.144531 -54.523438 178.375 -44.671875 C 174.601562 -34.816406 169.515625 -26.320312 163.109375 -19.1875 C 156.710938 -12.0625 149.320312 -6.554688 140.9375 -2.671875 C 132.550781 1.203125 123.847656 3.140625 114.828125 3.140625 Z M 102.25 -36.171875 C 107.695312 -36.171875 112.832031 -37.21875 117.65625 -39.3125 C 122.476562 -41.414062 126.671875 -44.25 130.234375 -47.8125 C 133.804688 -51.382812 136.585938 -55.6875 138.578125 -60.71875 C 140.566406 -65.75 141.5625 -71.203125 141.5625 -77.078125 C 141.5625 -82.953125 140.566406 -88.40625 138.578125 -93.4375 C 136.585938 -98.46875 133.804688 -102.765625 130.234375 -106.328125 C 126.671875 -109.898438 122.476562 -112.734375 117.65625 -114.828125 C 112.832031 -116.921875 107.695312 -117.96875 102.25 -117.96875 C 96.789062 -117.96875 91.648438 -116.921875 86.828125 -114.828125 C 82.003906 -112.734375 77.804688 -109.898438 74.234375 -106.328125 C 70.671875 -102.765625 67.894531 -98.46875 65.90625 -93.4375 C 63.914062 -88.40625 62.921875 -82.953125 62.921875 -77.078125 C 62.921875 -71.203125 63.914062 -65.75 65.90625 -60.71875 C 67.894531 -55.6875 70.671875 -51.382812 74.234375 -47.8125 C 77.804688 -44.25 82.003906 -41.414062 86.828125 -39.3125 C 91.648438 -37.21875 96.789062 -36.171875 102.25 -36.171875 Z M 102.25 -36.171875 "/></g></g></g></svg>